<?xml version="1.0" encoding="UTF-8" standalone="no"?>
<!-- Created with Inkscape (http://www.inkscape.org/) -->

<svg
   xmlns:dc="http://purl.org/dc/elements/1.1/"
   xmlns:cc="http://creativecommons.org/ns#"
   xmlns:rdf="http://www.w3.org/1999/02/22-rdf-syntax-ns#"
   xmlns:svg="http://www.w3.org/2000/svg"
   xmlns="http://www.w3.org/2000/svg"
   xmlns:sodipodi="http://sodipodi.sourceforge.net/DTD/sodipodi-0.dtd"
   xmlns:inkscape="http://www.inkscape.org/namespaces/inkscape"
   width="39.840328mm"
   height="44.501976mm"
   viewBox="0 0 141.16652 157.68417"
   id="svg2"
   version="1.1"
   inkscape:version="0.91 r13725"
   sodipodi:docname="oslabs-cogs-small.svg">
  <defs
     id="defs4" />
  <sodipodi:namedview
     id="base"
     pagecolor="#ffffff"
     bordercolor="#666666"
     borderopacity="1.0"
     inkscape:pageopacity="0.0"
     inkscape:pageshadow="2"
     inkscape:zoom="7.9195959"
     inkscape:cx="64.460032"
     inkscape:cy="110.95526"
     inkscape:document-units="px"
     inkscape:current-layer="layer1"
     showgrid="false"
     fit-margin-top="0"
     fit-margin-left="0"
     fit-margin-right="0"
     fit-margin-bottom="0"
     inkscape:window-width="1653"
     inkscape:window-height="1005"
     inkscape:window-x="27"
     inkscape:window-y="0"
     inkscape:window-maximized="1" />
  <metadata
     id="metadata7">
    <rdf:RDF>
      <cc:Work
         rdf:about="">
        <dc:format>image/svg+xml</dc:format>
        <dc:type
           rdf:resource="http://purl.org/dc/dcmitype/StillImage" />
        <dc:title></dc:title>
      </cc:Work>
    </rdf:RDF>
  </metadata>
  <g
     inkscape:label="Layer 1"
     inkscape:groupmode="layer"
     id="layer1"
     transform="translate(-119.86712,-210.11191)">
    <path
       inkscape:connector-curvature="0"
       id="path4259"
       d="m 200.40259,366.40916 c -18.10898,-4.37772 -32.45629,-17.57054 -37.42404,-34.41261 -2.34319,-7.94407 -2.73654,-15.67384 -1.11888,-21.9881 4.37666,-17.08376 16.44429,-30.02983 33.89747,-36.36499 4.9595,-1.8002 7.76509,-2.19517 14.74833,-2.07621 l 8.62374,0.14709 -9.36904,0.65468 c -24.42137,1.70654 -41.99806,17.18407 -45.6207,40.17225 -3.60327,22.86527 13.59654,46.91103 37.60864,52.5779 19.72429,4.65494 41.16078,-4.63246 49.6897,-21.52818 7.95828,-15.76522 6.94624,-38.46706 -2.34748,-52.65912 l -3.26732,-4.98936 3.54405,3.86847 c 7.14402,7.79798 11.72145,20.24943 11.66608,31.73388 -0.0978,20.29937 -14.73319,39.11355 -34.7418,44.66177 -7.36232,2.04152 -17.93965,2.12434 -25.88875,0.20269 z m 0.92544,-7.30551 c -1.54589,-0.68709 -3.83587,-2.36025 -5.08882,-3.71816 -2.20329,-2.38783 -2.22865,-2.57271 -0.7717,-5.62796 0.82854,-1.73742 2.69922,-4.00835 4.15711,-5.04644 l 2.65065,-1.88746 4.44514,5.12256 c 6.55686,7.5561 6.08391,12.55392 -1.17631,12.43056 -0.77295,-0.0125 -2.67018,-0.58604 -4.21607,-1.2731 z m 6.48169,-1.11994 c 1.98452,-0.76152 1.86728,-2.80281 -0.3688,-6.42086 -2.51936,-4.0764 -5.73822,-5.48872 -8.34622,-3.66198 -3.7666,2.63823 -1.96809,7.36119 3.65796,9.60592 2.88191,1.14983 3.22029,1.18178 5.05706,0.47692 z m -6.76276,-2.42939 c -0.61836,-0.61836 -1.12428,-2.09398 -1.12428,-3.27917 0,-1.64583 0.5275,-2.15488 2.23298,-2.15488 2.12003,0 3.33803,1.94383 3.37564,5.3872 0.0156,1.49224 -3.00737,1.52381 -4.48434,0.0469 z m 14.88603,-0.63304 c -2.66246,-3.73909 -2.51749,-7.6952 0.38182,-10.41896 1.28621,-1.20833 2.56121,-1.97431 2.83335,-1.70217 0.27202,0.27201 -0.14772,1.02809 -0.93322,1.6799 -1.74854,1.45117 -1.8352,7.36787 -0.14053,9.59905 0.99874,1.31497 1.8012,1.45211 4.30123,0.73512 8.53926,-2.44903 9.69899,-6.44034 2.91174,-10.02081 -5.46255,-2.88163 -5.6069,-3.10527 -2.00447,-3.10527 2.24029,0 3.92709,0.86654 6.29381,3.23325 3.17504,3.17505 3.20683,3.28444 1.76428,6.07404 -1.63671,3.16502 -4.87793,5.12296 -10.02072,6.05331 -3.0608,0.55368 -3.64128,0.32445 -5.3872,-2.12746 z m 4.32878,-3.51226 c -0.36527,-0.3653 -0.66411,-1.8587 -0.66411,-3.31871 0,-1.97224 0.45215,-2.65456 1.7591,-2.65456 3.90708,0 5.25319,5.81964 1.47194,6.36361 -1.04652,0.15053 -2.20163,-0.025 -2.56693,-0.39034 z m -38.68814,-4.34146 c -3.36267,-3.08167 -3.42579,-3.26102 -2.3229,-6.60277 0.62351,-1.8893 1.4191,-3.60961 1.768,-3.82294 0.34888,-0.2133 3.05856,-0.68941 6.02152,-1.05792 l 5.38719,-0.67001 -0.0125,5.02667 c -0.0281,10.00507 -4.49464,12.94208 -10.84001,7.12697 z m 8.0431,-3.97407 c 0,-4.62178 -0.20424,-5.15297 -1.98155,-5.15297 -1.86822,0 -1.89851,0.1268 -0.5296,2.216 1.62628,2.48201 0.61489,4.34233 -2.36075,4.34233 -1.26391,0 -1.68643,-0.73294 -1.68643,-2.92542 0,-2.47093 -0.21455,-2.74741 -1.38068,-1.77959 -2.60909,2.16537 2.01547,8.34969 6.29943,8.42414 1.36623,0.025 1.63958,-0.83066 1.63958,-5.12449 z m 44.19779,2.98457 c -5.161,-5.49366 -0.57994,-16.56967 6.85323,-16.56967 4.80876,0 8.19154,3.4696 7.09855,7.28071 -1.21139,4.22387 -2.55931,6.34296 -5.7337,9.01404 -3.57987,3.01228 -5.58347,3.07929 -8.21808,0.27483 z m 7.44214,-3.34281 c 4.23312,-4.23309 4.97268,-8.69868 1.72821,-10.43511 -5.7672,-3.08647 -11.82485,5.79328 -8.3638,12.26029 1.38837,2.59414 2.53042,2.27999 6.63559,-1.82518 z m -5.25503,-1.63461 c -1.93689,-2.95609 -0.87716,-5.71181 1.98992,-5.17449 2.30125,0.43125 3.22688,1.95347 2.92914,4.81706 -0.33579,3.22944 -2.91446,3.41679 -4.91906,0.35743 z m -61.18976,-6.60118 c -4.70797,-2.32021 -7.26719,-8.72948 -4.94816,-12.39208 1.13871,-1.79849 8.52289,-0.73354 13.22043,1.90663 3.26982,1.83773 3.49662,2.21865 2.65222,4.45466 -1.06988,2.83311 -5.37736,7.60794 -6.83509,7.57671 -0.54772,-0.0125 -2.38795,-0.70739 -4.0894,-1.54592 z m 7.3625,-3.35149 c 2.90122,-3.47773 2.26834,-4.88646 -2.94422,-6.55336 -5.21299,-1.66707 -7.00848,-1.42494 -7.65088,1.03168 -0.75989,2.90575 0.98366,5.65028 4.17378,6.57004 4.43434,1.27847 4.48746,1.26979 6.42132,-1.04836 z m -7.29067,-0.52376 c -0.63138,-0.40112 -1.26379,-1.76488 -1.40536,-3.03057 -0.2108,-1.88521 0.20237,-2.35435 2.28639,-2.59464 2.0863,-0.24047 2.65672,0.15678 3.17173,2.2086 0.80281,3.19862 -1.4313,5.08205 -4.05276,3.41661 z m 65.83983,-4.24583 c -1.41663,-1.03588 -1.63352,-2.13493 -1.23659,-6.26599 0.40899,-4.25638 0.99059,-5.47645 3.86739,-8.11283 4.42874,-4.05864 7.563,-4.11208 8.94331,-0.15241 1.44998,4.15939 1.27703,9.77872 -0.40084,13.02337 -1.24537,2.40825 -1.94614,2.76418 -5.44238,2.76418 -2.2071,0 -4.78602,-0.56529 -5.73089,-1.2562 z m 8.97457,-1.23028 c 1.24718,-1.50298 1.7705,-12.80008 0.64506,-13.92552 -0.27764,-0.27763 -1.617,-0.0818 -2.97648,0.43507 -3.12373,1.18765 -6.21217,6.17704 -6.21673,10.0432 -0.003,2.38539 0.50146,3.15131 2.57299,3.90789 3.68659,1.34646 4.52955,1.28147 5.97516,-0.46064 z m -4.49554,-1.98755 c -1.51701,-0.96498 -2.37527,-5.09629 -1.37669,-6.62678 0.45334,-0.69481 1.61697,-1.1128 2.58582,-0.92882 1.33543,0.25359 1.83121,1.29574 2.04964,4.30826 0.28888,3.98537 -0.64128,4.91234 -3.25877,3.24734 z m -73.18735,-6.75989 c -1.96609,-0.83597 -2.09385,-1.31775 -1.55098,-5.84718 0.63107,-5.26506 2.91087,-9.42769 5.43529,-9.92413 0.84871,-0.16677 2.87583,1.02922 4.5047,2.65809 1.62887,1.62887 3.94643,3.33604 5.15013,3.79368 3.15068,1.1979 3.02929,5.90584 -0.20706,8.0263 -2.83532,1.85776 -10.30135,2.58198 -13.3322,1.29324 z m 8.67376,-1.88274 c 0.67373,0 2.18258,-0.77547 3.35306,-1.72324 l 2.12815,-1.72325 -3.66392,-3.4044 c -4.36804,-4.05857 -7.14802,-4.40139 -8.66652,-1.06869 -1.85251,4.06582 -1.39586,7.73039 1.02076,8.19132 1.15941,0.22111 2.66952,0.25046 3.3558,0.0649 0.68625,-0.18519 1.79898,-0.33684 2.47267,-0.33684 z m -4.59042,-3.34609 c -1.86478,-1.86478 -1.89005,-4.04764 -0.055,-4.75182 1.98573,-0.76198 4.20413,1.34686 4.20413,3.99655 0,2.57646 -1.96946,2.93498 -4.14914,0.75527 z m 59.72713,-2.44931 c -5.17899,-6.6039 -1.82921,-16.69029 5.543,-16.69029 3.25774,0 6.33288,4.558 6.32098,9.36904 -0.006,2.69922 -0.57438,3.6459 -3.21024,5.35294 -4.28893,2.77757 -7.45444,3.49758 -8.65374,1.96831 z m 7.35504,-4.18731 c 2.48023,-2.24457 2.31262,-8.22936 -0.28139,-10.04626 -1.80866,-1.26685 -2.2456,-1.21167 -4.68452,0.59153 -1.87796,1.38843 -2.68982,2.8024 -2.68982,4.68477 0,5.78079 3.87257,8.19366 7.6557,4.76996 z m -4.18799,-1.85235 c -0.36134,-0.36133 -0.65699,-2.09167 -0.65699,-3.84518 0,-2.77036 0.27638,-3.14893 2.10803,-2.88879 1.72575,0.24516 2.10804,0.89175 2.10804,3.56573 0,3.14444 -1.89552,4.8318 -3.55908,3.16824 z m -55.87058,-3.34687 c -1.733,-1.18294 -3.73697,-3.04585 -4.4533,-4.13977 -1.1794,-1.80127 -1.0116,-2.36316 1.77784,-5.95244 1.69408,-2.17986 4.27125,-4.65766 5.72698,-5.50621 2.59001,-1.5097 2.69401,-1.48418 4.84364,1.18905 3.15565,3.92429 3.75264,8.3386 1.69661,12.54496 -2.09988,4.29605 -5.15841,4.89054 -9.59177,1.86441 z m 6.51554,-0.97966 c 0.5013,-1.15942 1.42331,-2.82361 2.04885,-3.69818 2.32696,-3.25321 -1.76716,-9.283 -5.36543,-7.90222 -1.47865,0.56742 -1.50913,0.77853 -0.25827,1.7887 2.14313,1.73075 2.63045,4.04796 1.24867,5.93763 -1.05086,1.43712 -1.46906,1.50489 -2.74638,0.44481 -0.82869,-0.68775 -1.52012,-2.14747 -1.53652,-3.24378 -0.0281,-1.95422 -0.0568,-1.95766 -1.40535,-0.17457 -0.75655,1.00024 -1.37557,2.15703 -1.37557,2.57061 0,0.67439 7.269,6.38513 8.12746,6.38513 0.193,0 0.76123,-0.94862 1.26254,-2.10804 z m 34.04206,-3.50549 c -4.71294,-1.90191 -6.25736,-7.45985 -3.41164,-12.27731 1.96141,-3.32039 5.22524,-3.57517 10.60972,-0.82819 3.27216,1.66931 3.71029,2.28632 3.71029,5.22501 0,2.43377 -0.7384,4.07063 -2.73863,6.07086 -2.81271,2.81271 -4.66653,3.22333 -8.16974,1.80963 z m 5.22005,-1.84589 c 0.92604,-0.49562 2.23948,-2.24282 2.91874,-3.88271 1.13849,-2.74857 1.0672,-3.11752 -0.9122,-4.72035 -1.18097,-0.95629 -3.30131,-1.7387 -4.71185,-1.7387 -2.07109,0 -2.87901,0.69718 -4.19823,3.62269 -1.39105,3.08482 -1.44827,3.91945 -0.38538,5.62143 1.32397,2.11999 4.48824,2.5965 7.28892,1.09764 z m -4.61762,-5.65724 c 0,-2.86028 0.56345,-3.25474 3.20252,-2.24201 3.00709,1.15392 1.19974,5.05272 -2.34226,5.05272 -0.47313,0 -0.86026,-1.26482 -0.86026,-2.81071 z m -17.89468,5.49619 c -3.70055,-2.1462 -5.90855,-5.31062 -6.88084,-9.86132 l -0.63235,-2.95977 6.96832,-0.65299 c 3.83259,-0.35915 7.90219,-0.35659 9.04356,0.006 1.78852,0.56764 1.99161,1.10436 1.46994,3.88497 -0.91945,4.90119 -4.03659,11.58519 -5.39154,11.56099 -0.66242,-0.0125 -2.72211,-0.90174 -4.57709,-1.97756 z m 5.57317,-2.45125 c 0.47358,-0.90177 1.15786,-3.43141 1.52066,-5.62143 l 0.65961,-3.98184 -5.64063,0 c -4.78161,0 -5.72951,0.27982 -6.22413,1.83842 -0.72645,2.28883 0.63694,4.92522 3.85679,7.45795 3.02186,2.37699 4.69427,2.46505 5.8277,0.30699 z m -6.1077,-3.59141 c -0.33145,-0.86376 0.2464,-2.29913 1.38368,-3.43628 1.63046,-1.63046 2.19335,-1.75335 3.40933,-0.74418 0.80105,0.66483 1.45645,2.21115 1.45645,3.43628 0,1.85557 -0.47426,2.22755 -2.8401,2.22755 -1.72669,0 -3.0633,-0.58157 -3.40936,-1.48337 z m -49.82531,-1.04792 c -2.03473,-0.40144 -2.15544,-0.75025 -1.58218,-4.57306 0.56024,-3.73584 0.43594,-4.1385 -1.27762,-4.1385 -2.08427,0 -3.838,2.54054 -3.838,5.55984 0,2.29507 -2.4144,2.5298 -5.10344,0.49612 -1.80157,-1.36247 -1.7986,-1.43246 0.23641,-5.62101 l 2.0606,-4.24137 -2.11013,-0.79961 c -2.64897,-1.00377 -4.06404,0.0878 -4.78455,3.69015 -0.72585,3.62935 -3.17782,3.64977 -6.62169,0.0553 -2.90434,-3.03148 -2.66452,-4.09911 1.3918,-6.19675 2.91827,-1.50907 3.59571,-4.19202 1.49808,-5.93291 -0.93918,-0.77944 -2.21918,-0.57339 -5.10772,0.82219 -4.92152,2.37783 -5.29669,2.34807 -6.60533,-0.52407 -1.60448,-3.52151 -1.365,-4.17197 1.53606,-4.17197 3.14678,0 4.8719,-1.51863 4.8719,-4.28874 0,-3.07351 -2.30091,-4.45851 -6.47663,-3.89843 -3.60287,0.48326 -3.65337,0.44713 -4.08462,-2.92276 -0.56973,-4.45183 0.1549,-5.08864 5.32208,-4.67765 4.14524,0.32966 4.30226,0.2489 4.30226,-2.217 0,-1.88636 -0.72672,-2.93497 -2.76418,-3.98862 -1.52031,-0.78615 -3.41754,-1.4294 -4.21606,-1.4294 -1.88206,0 -1.83655,-1.40198 0.1549,-4.77337 1.80488,-3.05543 3.8978,-2.96224 7.50048,0.33404 1.71781,1.57175 2.33036,1.69633 3.51339,0.71451 2.03386,-1.68795 1.7827,-3.55252 -0.90946,-6.75198 -2.67608,-3.18035 -2.97913,-5.62948 -0.90917,-7.34739 1.09584,-0.90945 1.97787,-0.94118 3.74762,-0.13491 1.273,0.58 2.31452,1.40573 2.31452,1.83489 0,0.99546 3.60412,4.89139 4.48681,4.8501 0.36639,-0.0156 1.63449,-0.83849 2.81802,-1.82524 l 2.15185,-1.79408 -1.91763,-3.75886 c -2.95477,-5.79181 -2.63167,-6.80361 2.06422,-6.46385 3.83543,0.27763 3.99908,0.41842 4.45029,3.83253 0.51833,3.92188 0.54815,3.93958 5.17381,3.07179 l 3.26217,-0.61198 -1.40729,-2.72137 c -0.77398,-1.49676 -1.40726,-3.11879 -1.40726,-3.60458 0,-1.53724 2.55359,-1.94051 6.09534,-0.96257 2.48901,0.68725 3.27476,1.33546 2.87661,2.37305 -1.72441,4.4937 -1.58518,5.58782 0.85236,6.69843 1.34399,0.61236 2.5773,1.11338 2.74069,1.11338 0.16334,0 1.02163,-1.89723 1.9072,-4.21607 1.74773,-4.5763 2.06409,-4.75222 5.62713,-3.12879 2.72855,1.24321 3.20846,4.55932 0.93316,6.44765 -2.2714,1.88511 -1.41354,6.91267 1.24387,7.28974 1.66291,0.2361 2.35409,-0.33179 3.13659,-2.57649 1.68072,-4.82131 6.15693,-3.21286 9.60271,3.45056 1.69929,3.28606 0.97519,4.6461 -2.69554,5.06284 -2.29323,0.26046 -2.86336,0.80533 -3.11174,2.97439 -0.52672,4.59979 0.17271,5.24366 4.61248,4.24611 4.32958,-0.97279 5.66614,-0.13304 4.83654,3.03947 -0.39084,1.49455 0.0647,1.77009 2.92555,1.77009 2.77779,0 3.38844,-0.3419 3.38844,-1.89723 0,-1.35851 -0.79812,-2.05684 -2.81072,-2.45937 -3.09368,-0.61873 -3.61498,-2.24173 -1.32927,-4.13868 1.16179,-0.9642 1.86659,-0.98893 3.26645,-0.11461 2.35191,1.46878 2.44298,1.44298 3.0459,-0.86261 0.37345,-1.42816 0.0125,-2.1091 -1.29608,-2.45154 -2.40715,-0.6295 -2.30478,-2.73732 0.198,-4.07675 1.63477,-0.87491 2.16956,-0.7934 2.85728,0.43548 0.46533,0.83153 1.45754,1.51185 2.20488,1.51185 1.60248,0 1.81153,-2.92008 0.31614,-4.41551 -1.38112,-1.38112 -0.24609,-3.07972 2.05803,-3.07972 1.10243,0 2.19917,0.94021 2.73223,2.34226 0.84447,2.22111 2.7347,3.04284 4.02694,1.75063 0.32542,-0.32542 0.14147,-1.43305 -0.40902,-2.46143 -1.27075,-2.37443 0.38544,-3.62482 4.34577,-3.28091 2.53745,0.22048 2.81071,0.56089 2.81071,3.50255 0,3.77513 2.70284,5.18626 3.73069,1.94779 0.70055,-2.20725 2.58217,-2.51084 4.11497,-0.66395 0.79981,0.96373 0.6049,1.66441 -0.82219,2.95593 -2.37393,2.14835 -2.35806,2.99516 0.0706,3.76592 1.24099,0.39387 2.59454,0.025 3.75336,-1.02416 0.99684,-0.90212 1.92912,-1.46713 2.07178,-1.25558 0.14272,0.21143 0.8023,1.09618 1.46591,1.96587 1.04524,1.36985 0.82622,1.7779 -1.63824,3.05231 -3.51024,1.81522 -2.97092,4.26704 0.93862,4.26704 2.28551,0 2.71046,0.3771 2.71046,2.4054 0,1.92856 -0.34946,2.29448 -1.76284,1.84589 -1.13862,-0.36139 -1.96913,-0.0219 -2.34532,0.9583 -0.81745,2.13027 0.0987,3.22254 2.70281,3.22254 2.81414,0 3.64918,1.30564 2.36712,3.70115 -0.7802,1.45785 -1.60948,1.74389 -3.79094,1.3076 -2.19935,-0.43987 -2.79225,-0.22891 -2.79225,0.99343 0,0.85352 0.63241,1.79455 1.40536,2.09114 1.80647,0.69322 1.79832,2.59395 -0.0187,4.10102 -1.16461,0.96654 -1.76095,0.87504 -3.28491,-0.50415 -2.42808,-2.19735 -3.45096,-1.09558 -1.81713,1.95726 1.10149,2.05812 1.0905,2.52508 -0.0765,3.26342 -1.9933,1.26092 -2.32224,1.1305 -3.71583,-1.47344 -1.29042,-2.41121 -3.55127,-2.66668 -2.9192,-0.32985 0.19175,0.70855 0.55702,2.02605 0.81195,2.92782 0.37033,1.30995 -0.12367,1.63959 -2.45647,1.63959 -2.61983,0 -2.91998,-0.28888 -2.91998,-2.81072 0,-2.18611 -0.41639,-2.81071 -1.87381,-2.81071 -1.45742,0 -1.87381,0.6246 -1.87381,2.81071 0,2.15763 -0.42254,2.81072 -1.8185,2.81072 -2.23292,0 -3.42067,-1.69393 -2.10806,-3.00653 1.2685,-1.26847 0.36161,-3.5518 -1.4107,-3.5518 -0.76404,0 -2.08917,0.8562 -2.94469,1.90266 -1.46404,1.79074 -1.68358,1.81238 -3.73197,0.36743 l -2.17643,-1.53525 2.11716,-2.25363 c 1.5798,-1.68161 1.8472,-2.52367 1.05342,-3.31742 -0.79374,-0.79374 -1.70042,-0.64662 -3.57201,0.5797 -2.06309,1.35179 -2.651,1.41806 -3.31289,0.37348 -1.37978,-2.17749 -0.92104,-3.61245 1.50885,-4.71959 3.12654,-1.42453 3.02264,-3.57713 -0.1727,-3.57713 -1.38321,0 -4.27587,-0.85246 -6.42816,-1.89436 -4.98392,-2.41268 -7.18331,-1.68558 -6.80052,2.24816 0.24984,2.56709 0.80102,3.08501 4.50073,4.22891 5.26571,1.62805 4.9798,1.3091 4.23078,4.71934 -0.76124,3.46595 -3.03797,3.76773 -7.52125,0.99689 l -3.04319,-1.8808 -1.60469,2.4491 c -1.57235,2.39969 -1.54627,2.5094 1.29302,5.43879 3.45221,3.5618 3.47107,3.69868 0.84724,6.14315 -2.61696,2.43808 -4.50785,2.44104 -4.50785,0.006 0,-2.62293 -2.36287,-3.29025 -5.16022,-1.45735 -2.82408,1.85041 -2.94797,3.69115 -0.4612,6.85254 2.55681,3.25047 2.35912,4.51182 -0.92008,5.87011 -3.71276,1.53787 -5.22848,0.80474 -6.68949,-3.23563 -0.7929,-2.1927 -1.66441,-3.19315 -2.50166,-2.87189 -0.70667,0.27108 -1.85722,0.49306 -2.55675,0.49306 -0.89958,0 -1.21997,1.16564 -1.09452,3.98184 0.18988,4.26292 -0.63688,4.8061 -5.77301,3.79281 z m 7.34274,-28.15378 c 3.94293,-1.97759 5.60218,-5.00385 5.62064,-10.25135 0.0187,-5.17515 -2.29142,-6.84568 -9.46463,-6.84568 -4.57084,0 -5.72074,0.38007 -8.22365,2.71815 -2.40712,2.2486 -2.9098,3.43428 -2.9098,6.86347 0,7.69252 7.31047,11.36078 14.97744,7.51541 z m 60.84379,-7.38589 c 2.22749,-2.8318 2.36624,-4.00692 0.8627,-7.30679 -2.18202,-4.78902 -7.73558,-3.58194 -10.1314,2.20206 -2.62767,6.34378 4.99273,10.54074 9.2687,5.10473 z m 15.39002,31.66669 c -2.65175,-1.88826 -5.603,-3.97581 -6.55833,-4.63898 -0.95529,-0.66318 0.0656,-0.26327 2.26884,0.88865 3.53753,1.84957 10.81153,7.33633 9.57935,7.22565 -0.25765,-0.0219 -2.63808,-1.58702 -5.28986,-3.47532 z"
       style="fill:#999999" />
  </g>
</svg>
